<?xml version="1.0" encoding="utf-8"?>
<!-- Generator: Adobe Illustrator 27.0.1, SVG Export Plug-In . SVG Version: 6.00 Build 0)  -->
<svg version="1.1" id="Layer_1" xmlns="http://www.w3.org/2000/svg" xmlns:xlink="http://www.w3.org/1999/xlink" x="0px" y="0px"
	 viewBox="0 0 160 40" style="enable-background:new 0 0 160 40;" xml:space="preserve">
<style type="text/css">
	.st0{fill:#706CA5;}
</style>
<g>
	<path class="st0" d="M28.6,35.1l-8.3-8.6h6.8v-2.9h-3v-6h3v-2.1v-0.8V2.5h-1.3h-1.3h-3.2H20h-1.3v12.2H8H7H5.3v11.8h1.4H8h4.4
		l-8.4,8.8l2.4,2.2L16.3,27l9.8,10.5L28.6,35.1z M21.5,5.7h2.7v9h-2.7V5.7z M8.6,17.6h13v6h-13V17.6z"/>
	<path class="st0" d="M10.6,13.4c3.2,0,5.7-2.4,5.7-5.4c0-3-2.5-5.4-5.7-5.4C7.3,2.6,4.9,5,4.9,8C4.9,11,7.3,13.4,10.6,13.4z
		 M10.6,5.4c1.5,0,2.7,1.2,2.7,2.6c0,1.5-1.2,2.6-2.7,2.6C9,10.6,7.9,9.5,7.9,8C7.9,6.5,9,5.4,10.6,5.4z"/>
</g>
<path class="st0" d="M93.5,31.5h9V24H90.2v2.6h9V29h-9v7.7h12.6v-2.6h-9.3V31.5z M54.2,9.4h-3.3v16.1h3.3V9.4z M53.3,17.2h5.4v-2.7
	h-5.4V17.2z M39.4,10.1h-3.3v11.7h9.2v-2.5h-6V10.1z M43.9,21.8h3.2V10.1h-3.2V21.8z M38,16.1h7.4v-2.5H38V16.1z M42.9,31.8
	c0,2.9,2.3,5.2,5.6,5.2c3.4,0,5.7-2.3,5.7-5.2c0-2.9-2.3-5.2-5.7-5.2C45.2,26.6,42.9,28.9,42.9,31.8L42.9,31.8z M46.1,31.8
	c0-1.5,1.1-2.5,2.4-2.5c1.4,0,2.4,1.1,2.4,2.5c0,1.5-1,2.5-2.4,2.5C47.2,34.3,46.1,33.2,46.1,31.8L46.1,31.8z M102.5,9.4h-3.3v12.9
	h3.3V9.4z M151.2,9.4h-3.3v16.7h3.3V9.4z M150.3,17.2h5.4v-2.7h-5.4V17.2z M91.4,15.7v-5.6h-3.3v4.6l-5.7,5.2l1.9,2.2L91.4,15.7z
	 M94.9,21.8l1.9-2.2l-5.4-4.9v-3.1h-3.3v4.1L94.9,21.8z M140.3,16.6v-5H137v4l-5.7,5.2l1.9,2.2L140.3,16.6z M143.9,22.7l1.9-2.2
	l-5.4-4.9v-3.1H137v4.1L143.9,22.7z M145.1,10.1h-12.8v2.7h12.8V10.1z M59.4,25.3h20.9v-2.7H59.4V25.3z M71.5,18.9h-3.3v4.5h3.3
	V18.9z M64.3,32.1c0,2.9,2.3,5.2,5.6,5.2c3.4,0,5.7-2.3,5.7-5.2c0-2.9-2.3-5.2-5.7-5.2C66.6,26.9,64.3,29.2,64.3,32.1L64.3,32.1z
	 M67.5,32.1c0-1.5,1.1-2.5,2.4-2.5c1.4,0,2.4,1.1,2.4,2.5c0,1.5-1,2.5-2.4,2.5C68.6,34.6,67.5,33.5,67.5,32.1L67.5,32.1z M71.5,14.2
	v-5h-3.3v4l-6.2,5.1l1.8,2.2L71.5,14.2z M75.9,20.4l1.8-2.2l-6.2-5.1v-2.4h-3.3v3.5L75.9,20.4z M123.5,27h3.3V9.4h-3.3V27z
	 M117.7,28.2h-3.3v8.4H127V34h-9.3V28.2z M124.4,11.4h-5.1V14h5.1V11.4z M124.4,17h-5.1v2.6h5.1V17z M106.8,15.5
	c0,3.1,2.4,5.6,5.8,5.6c3.5,0,5.9-2.5,5.9-5.6c0-3.1-2.4-5.6-5.9-5.6C109.1,9.9,106.8,12.4,106.8,15.5L106.8,15.5z M110,15.5
	c0-1.7,1.1-2.9,2.6-2.9c1.5,0,2.6,1.2,2.6,2.9c0,1.7-1.1,2.9-2.6,2.9C111.1,18.4,110,17.1,110,15.5z"/>
</svg>
